<svg xmlns="http://www.w3.org/2000/svg" fill="none" viewBox="0 0 145 59"><path fill="#300D4F" d="M12.31 37.946V28.42c0-.02.011-.04.03-.05l12.252-7.068a.055.055 0 00.029-.05v-2.708a.056.056 0 00-.085-.05l-12.14 7.004a.056.056 0 01-.085-.05v-2.71c0-.02.01-.039.028-.049l12.253-7.068a.059.059 0 00.029-.05v-2.708a.058.058 0 00-.085-.05l-12.14 7.003a.056.056 0 01-.086-.049v-2.709c0-.02.011-.039.03-.049l12.252-7.065a.056.056 0 00.029-.05V7.15a.12.12 0 00-.056-.098L12.367.015a.112.112 0 00-.113 0l-2.32 1.339a.056.056 0 000 .098l12.14 7.003a.058.058 0 010 .098l-2.32 1.338a.12.12 0 01-.114 0L7.443 2.856a.12.12 0 00-.12 0L5.01 4.193a.056.056 0 000 .098l12.138 7.004a.056.056 0 010 .099l-2.32 1.338a.12.12 0 01-.12 0L2.519 5.695a.12.12 0 00-.12 0L0 7.083V30.91c0 .02.01.04.029.049l2.348 1.355a.056.056 0 00.085-.05V8.603a.056.056 0 01.085-.049l2.35 1.355c.016.01.027.029.027.05V33.75c0 .02.01.04.028.05L7.3 35.156a.058.058 0 00.087-.05V11.442a.056.056 0 01.085-.05l2.348 1.354c.018.01.029.03.029.05v23.795c0 .02.01.039.027.05l2.355 1.353a.056.056 0 00.08-.049z"/><path fill="#300D4F" fill-rule="evenodd" d="M36.934 7.512v22.933c.01.242.195.44.436.466h2.478a.427.427 0 00.437-.43v-9.546a.229.229 0 01.23-.223h3.642c4.003 0 7.053-2.683 7.053-6.898s-2.688-6.731-7.014-6.731h-6.823a.427.427 0 00-.44.429zm10.845 6.302c0 2.162-1.296 4.064-3.583 4.064l-3.675-.003a.229.229 0 01-.23-.224v-7.548a.23.23 0 01.224-.224h3.68c2.403 0 3.584 1.697 3.584 3.935z" clip-rule="evenodd"/><path fill="#300D4F" d="M65.33 7.046h2.478a.427.427 0 01.44.429V24.8c0 3.935-3.222 6.34-6.996 6.34-3.698 0-6.919-2.424-6.919-6.34V7.475a.426.426 0 01.438-.43h2.44a.427.427 0 01.44.43v17.264c0 2.144 1.637 3.505 3.582 3.505 1.945 0 3.622-1.361 3.622-3.505V7.487a.503.503 0 01.476-.441zM76.767 18.83c-2.363-1.586-3.945-3.356-3.945-6.024 0-3.822 3.221-6.021 6.88-6.021 3.45 0 6.476 1.917 6.653 6.768a.459.459 0 01-.44.466h-2.267a.436.436 0 01-.439-.41c-.152-2.636-1.734-3.897-3.717-3.897-1.907 0-3.336 1.119-3.336 2.909 0 1.546.934 2.386 3.374 4.1l3.412 2.462c2.363 1.715 3.697 3.263 3.697 5.705 0 3.954-3.26 6.302-7.09 6.302-3.622 0-6.476-1.976-6.786-6.823a.436.436 0 01.44-.468h2.305a.45.45 0 01.438.411c.21 2.703 1.83 3.954 3.736 3.954 1.83 0 3.545-.988 3.545-3.3 0-1.438-.647-2.144-2.518-3.394l-3.942-2.74zM102.593 30.445v-10.03a.228.228 0 00-.229-.225h-7.299c-.124 0-.226.1-.229.224v10.03a.426.426 0 01-.439.428H91.92a.427.427 0 01-.44-.427V7.512a.426.426 0 01.44-.43h2.477a.427.427 0 01.44.43v9.585a.229.229 0 00.228.223h7.299a.228.228 0 00.229-.223V7.512a.429.429 0 01.439-.43h2.478a.427.427 0 01.439.43v22.95a.428.428 0 01-.439.43h-2.478a.442.442 0 01-.439-.447zM112.219 30.445V7.512a.426.426 0 01.438-.429h12.122a.424.424 0 01.439.429v1.995a.429.429 0 01-.439.429h-8.977a.23.23 0 00-.229.224v7.028a.229.229 0 00.229.224h6.176a.426.426 0 01.437.429v1.994a.426.426 0 01-.437.429h-6.176a.23.23 0 00-.229.224v7.309a.23.23 0 00.229.224h8.977c.239 0 .434.19.439.429v1.995a.44.44 0 01-.439.427h-12.122a.413.413 0 01-.438-.427z"/><path fill="#300D4F" fill-rule="evenodd" d="M137.035 20.47l3.659 9.975a.806.806 0 00.591.486h2.574a.437.437 0 00.419-.599l-4.136-10.57a.096.096 0 010-.079.093.093 0 01.057-.052c2.516-1.268 3.889-3.43 3.889-6.022 0-3.898-2.859-6.526-7.014-6.526h-6.786a.428.428 0 00-.438.429v22.933a.426.426 0 00.438.427h2.477a.425.425 0 00.439-.427v-9.901a.229.229 0 01.229-.223h3.393c.094 0 .178.06.209.148zm3.564-6.73c0 2.46-1.791 3.859-3.793 3.859l-3.354-.02a.23.23 0 01-.229-.224v-7.27a.209.209 0 01.21-.206h3.373c2.364 0 3.793 1.66 3.793 3.86z" clip-rule="evenodd"/><path fill="#300D4F" d="M6.123 56.03h1.286L4.304 47.37H3.117L0 56.03h1.286l.57-1.62h3.698l.569 1.62zm-3.884-2.734l1.46-4.169h.024l1.447 4.169H2.24zM12.488 56.03h1.262v-6.494h.025l2.708 6.493h.532l2.721-6.493h.025v6.493h1.262v-8.658h-1.571l-2.684 6.543h-.025l-2.684-6.543h-1.57v8.658zM22.9 52.752c0 2.065 1.238 3.463 3.056 3.463 1.249 0 2.214-.557 2.795-1.645l-.94-.631c-.544.878-1.039 1.2-1.868 1.2-1.076 0-1.78-.854-1.818-2.029h4.787v-.507c0-1.967-1.188-3.315-2.969-3.315-1.793 0-3.042 1.423-3.042 3.464zm1.25-.57c.025-.989.804-1.818 1.793-1.818 1.04 0 1.72.742 1.77 1.819H24.15zM30.073 53.828c.185 1.533 1.261 2.387 2.956 2.387 1.496 0 2.486-.755 2.486-1.93 0-1.138-.755-1.682-2.474-2.19-1.1-.308-1.472-.519-1.472-.927 0-.482.47-.804 1.175-.804.755 0 1.25.384 1.472 1.163l1.138-.297c-.26-1.187-1.286-1.942-2.61-1.942-1.348 0-2.35.817-2.35 1.905 0 1.002.668 1.484 2.251 1.93 1.25.383 1.682.63 1.682 1.212 0 .494-.494.804-1.298.804-1.089 0-1.608-.458-1.819-1.559l-1.137.248zM36.547 53.828c.185 1.533 1.261 2.387 2.956 2.387 1.497 0 2.486-.755 2.486-1.93 0-1.138-.754-1.682-2.474-2.19-1.1-.308-1.472-.519-1.472-.927 0-.482.47-.804 1.175-.804.755 0 1.25.384 1.472 1.163l1.138-.297c-.26-1.187-1.286-1.942-2.61-1.942-1.348 0-2.35.817-2.35 1.905 0 1.002.668 1.484 2.252 1.93 1.249.383 1.682.63 1.682 1.212 0 .494-.495.804-1.299.804-1.089 0-1.608-.458-1.818-1.559l-1.138.248zM43.29 54.322c0 1.15.854 1.893 2.152 1.893.804 0 1.485-.31 1.843-.817h.025v.631h1.113v-4.502c0-1.385-.94-2.239-2.461-2.239-1.423 0-2.486.829-2.696 2.115l1.175.248c.16-.83.717-1.3 1.52-1.3.743 0 1.2.347 1.2.88 0 .481-.37.716-1.558 1.013-1.67.396-2.313.977-2.313 2.078zm3.934-.507c0 .755-.68 1.311-1.633 1.311-.73 0-1.113-.321-1.113-.878 0-.495.395-.78 1.434-1.039.792-.21 1.175-.408 1.287-.693h.025v1.3zM50.476 57.278c.482 1.077 1.508 1.72 2.758 1.72 1.682 0 2.795-1.138 2.795-2.82v-6.704h-1.187v.63h-.025c-.433-.507-1.126-.803-1.868-.803-1.707 0-2.944 1.434-2.944 3.45 0 2.029 1.213 3.464 2.932 3.464.829 0 1.521-.31 1.88-.817h.025v.718c0 1.1-.606 1.78-1.608 1.78-.829 0-1.299-.32-1.732-1.199l-1.026.581zm4.341-3.958c0 .977-.767 1.77-1.732 1.77-1.138 0-1.867-.904-1.867-2.339 0-1.422.73-2.325 1.83-2.325.99 0 1.769.792 1.769 1.769v1.125zM57.615 52.752c0 2.065 1.237 3.463 3.055 3.463 1.25 0 2.214-.557 2.796-1.645l-.94-.631c-.545.878-1.04 1.2-1.868 1.2-1.076 0-1.781-.854-1.818-2.029h4.786v-.507c0-1.967-1.187-3.315-2.968-3.315-1.794 0-3.043 1.423-3.043 3.464zm1.25-.57c.024-.989.803-1.818 1.793-1.818 1.039 0 1.72.742 1.769 1.819h-3.563zM65.526 56.03h3.204c2.04 0 3.117-.879 3.117-2.598 0-.977-.495-1.732-1.287-2.041v-.025c.594-.297.965-.94.965-1.731 0-1.349-1.051-2.264-2.535-2.264h-3.464v8.658zm1.274-5.06v-2.424h1.98c.976 0 1.471.408 1.471 1.2 0 .816-.495 1.224-1.472 1.224H66.8zm0 3.884v-2.808h1.955c1.273 0 1.818.421 1.818 1.373 0 1.002-.557 1.435-1.843 1.435H66.8zM73.493 56.03h1.212v-6.556h-1.212v6.555zm-.062-7.694h1.323v-1.274h-1.323v1.274zM76.585 56.03h1.212v-3.81c0-1.138.383-1.658 1.138-1.658.198 0 .42.037.68.111l.235-1.212a3.04 3.04 0 00-.73-.099c-.606 0-1.113.248-1.373.656h-.024v-.544h-1.138v6.555zM80.553 52.752c0 2.028 1.237 3.463 2.931 3.463.804 0 1.522-.31 1.93-.817h.025v.631h1.137V47h-1.212v3.067h-.024c-.433-.482-1.101-.779-1.843-.779-1.707 0-2.944 1.435-2.944 3.464zm4.811.568c0 .977-.767 1.77-1.731 1.77-1.138 0-1.868-.904-1.868-2.339 0-1.434.705-2.337 1.83-2.337.99 0 1.77.791 1.77 1.756v1.15zM91.52 52.752c0 2.053 1.262 3.463 3.08 3.463 1.522 0 2.647-.928 2.882-2.4l-1.162-.235c-.186.977-.792 1.51-1.72 1.51-1.138 0-1.867-.904-1.867-2.339 0-1.434.73-2.337 1.867-2.337.928 0 1.559.556 1.72 1.509l1.162-.235c-.235-1.472-1.36-2.4-2.882-2.4-1.818 0-3.08 1.41-3.08 3.464zM98.816 52.752c0 2.065 1.262 3.463 3.129 3.463 1.868 0 3.13-1.398 3.13-3.464 0-2.065-1.262-3.463-3.13-3.463-1.867 0-3.129 1.398-3.129 3.464zm5.046 0c0 1.434-.729 2.337-1.917 2.337-1.187 0-1.917-.903-1.917-2.337 0-1.435.73-2.338 1.917-2.338 1.188 0 1.917.903 1.917 2.337zM106.721 56.03h1.188V51.8c0-.83.507-1.386 1.299-1.386.754 0 1.273.52 1.273 1.31v4.305h1.151V51.8c0-.829.507-1.385 1.286-1.385s1.286.52 1.286 1.31v4.305h1.188v-4.502c0-1.311-1.002-2.239-2.338-2.239-.705 0-1.336.31-1.793.817h-.025c-.346-.495-1.002-.817-1.695-.817-.643 0-1.286.272-1.632.705h-.025v-.52h-1.163v6.556zM117.23 58.812h1.212v-3.377h.025c.396.458 1.101.78 1.855.78 1.695 0 2.932-1.435 2.932-3.464 0-2.028-1.237-3.463-2.944-3.463-.755 0-1.435.31-1.868.792h-.025v-.606h-1.187v9.338zm4.811-6.06c0 1.434-.729 2.337-1.867 2.337-.965 0-1.732-.791-1.732-1.769v-1.15c0-.965.779-1.756 1.769-1.756 1.125 0 1.83.903 1.83 2.337zM124.557 54.322c0 1.15.853 1.893 2.152 1.893.804 0 1.484-.31 1.843-.817h.024v.631h1.114v-4.502c0-1.385-.94-2.239-2.462-2.239-1.422 0-2.486.829-2.696 2.115l1.175.248c.161-.83.717-1.3 1.521-1.3.742 0 1.2.347 1.2.88 0 .481-.371.716-1.558 1.013-1.67.396-2.313.977-2.313 2.078zm3.933-.507c0 .755-.68 1.311-1.633 1.311-.73 0-1.113-.321-1.113-.878 0-.495.396-.78 1.435-1.039.791-.21 1.175-.408 1.286-.693h.025v1.3zM131.519 56.03h1.212v-4.045c0-.94.619-1.571 1.559-1.571s1.496.593 1.496 1.57v4.045h1.213V51.8c0-1.534-.978-2.51-2.474-2.51-.693 0-1.423.308-1.818.766h-.025v-.581h-1.163v6.555zM139.165 58.812h1.249l3.896-9.338h-1.274l-1.88 4.663h-.025l-1.855-4.663h-1.274l2.523 6.06-1.36 3.278z"/></svg>
